<?xml version="1.0" encoding="UTF-8"?>
<svg id="Layer_1" data-name="Layer 1" xmlns="http://www.w3.org/2000/svg" xmlns:xlink="http://www.w3.org/1999/xlink" viewBox="0 0 3027.08 2928.33">
  <defs>
    <style>
      .cls-1 {
        fill: none;
      }

      .cls-2 {
        fill: #f2e5f3;
      }

      .cls-3 {
        opacity: .3;
      }

      .cls-4 {
        clip-path: url(#clippath);
      }
    </style>
    <clipPath id="clippath">
      <rect class="cls-1" width="3027.08" height="2928.33"/>
    </clipPath>
  </defs>
  <g class="cls-3">
    <g class="cls-4">
      <g>
        <path class="cls-2" d="M2981.36-36.66c10.68,7.09,21.33,14.21,31.92,21.36,342.54,77.3,225.9-135.5,551.99-53.49-9.97-6.14-19.99-12.25-30.06-18.33-328.13-82.21-209.08,127.93-553.84,50.46Z"/>
        <path class="cls-2" d="M2384.23,33.28c11.48,8.05,22.9,16.14,34.27,24.25,365.2,85.38,242.33-163.08,594.62-72.81-10.59-7.15-21.22-14.28-31.92-21.36-354.5-90.37-229.38,155.33-596.97,69.92Z"/>
        <path class="cls-2" d="M2459.08,86.77c11.24,8.19,22.43,16.41,33.56,24.65,359.75,85.2,242.23-169.13,589.48-79.19-10.35-7.27-20.76-14.52-31.22-21.74-349.58-90.12-229.57,161.58-591.81,76.28Z"/>
        <path class="cls-2" d="M2535.99,143.91c10.98,8.32,21.89,16.66,32.74,25.03,353.78,84.82,242.45-175.35,584.12-85.95-10.08-7.39-20.24-14.75-30.43-22.1-344.13-89.66-230.03,168.02-586.43,83.01Z"/>
        <path class="cls-2" d="M2607.4,199.09c10.71,8.43,21.33,16.89,31.91,25.37,347.88,84.29,242.94-181.14,579.09-92.44-9.82-7.49-19.69-14.96-29.63-22.41-338.69-89.04-230.8,174.04-581.37,89.48Z"/>
        <path class="cls-2" d="M2304.81-21.38c11.7,7.9,23.36,15.83,34.96,23.8,370.58,85.4,242.73-156.67,600-66.23-10.82-7.01-21.68-14-32.6-20.94-359.34-90.45-229.54,148.71-602.36,63.37Z"/>
        <path class="cls-2" d="M2747.21,313.77c10.1,8.63,20.13,17.27,30.07,25.94,335.34,82.68,244.74-192.54,569.11-105.82-9.23-7.66-18.53-15.31-27.88-22.94-327.04-87.23-233.12,185.92-571.3,102.82Z"/>
        <path class="cls-2" d="M2812.67,370.88c9.79,8.71,19.48,17.43,29.12,26.17,329,81.63,246-197.93,564.38-112.45-8.92-7.73-17.92-15.45-26.98-23.15-321.11-86.07-234.62,191.55-566.52,109.42Z"/>
        <path class="cls-2" d="M2879.18,431.42c9.44,8.78,18.79,17.57,28.08,26.38,322.27,80.36,247.53-203.44,559.55-119.44-8.6-7.79-17.26-15.58-26-23.34-314.79-84.66-236.43,197.34-561.63,116.41Z"/>
        <path class="cls-2" d="M2940.23,489.45c9.1,8.84,18.13,17.68,27.06,26.54,315.81,78.97,249.21-208.54,555.1-126.14-8.27-7.84-16.64-15.67-25.05-23.49-308.68-83.15-238.35,202.71-557.11,123.08Z"/>
        <path class="cls-2" d="M2676.94,254.97c10.41,8.53,20.76,17.09,31.03,25.67,341.8,83.59,243.7-186.8,574.15-98.97-9.54-7.58-19.13-15.14-28.79-22.68-333.06-88.25-231.8,179.93-576.39,95.99Z"/>
        <path class="cls-2" d="M2999.04,547.82c8.77,8.88,17.43,17.77,26.03,26.68,309.33,77.43,251.07-213.51,550.8-132.85-7.96-7.88-15.98-15.75-24.09-23.61-302.54-81.47-240.44,207.94-552.74,129.79Z"/>
        <path class="cls-2" d="M1586.56,4.74c12.82,8.61,25.62,17.26,38.37,25.95,396.77,91.88,250.23-177.32,637.55-80.25-11.8-7.82-23.67-15.6-35.55-23.34-389.42-96.91-241.36,169.27-640.36,77.64Z"/>
        <path class="cls-2" d="M1756.31,122.66c12.4,8.93,24.78,17.89,37.08,26.88,385.83,92.62,247.87-189.41,624.96-91.99-11.37-8.11-22.79-16.2-34.28-24.25-379.49-97.4-239.36,181.87-627.76,89.36Z"/>
        <path class="cls-2" d="M1837.29,181.94c12.17,9.06,24.28,18.16,36.33,27.29,379.97,92.75,247.27-195.11,618.85-97.78-11.13-8.25-22.31-16.46-33.56-24.65-374.12-97.39-238.94,187.85-621.62,95.14Z"/>
        <path class="cls-2" d="M1920.59,245.17c11.88,9.2,23.73,18.43,35.48,27.68,373.56,92.71,247.01-200.94,612.5-103.89-10.84-8.37-21.77-16.71-32.74-25.04-368.16-97.2-238.87,193.99-615.24,101.24Z"/>
        <path class="cls-2" d="M1997.99,306.17c11.6,9.32,23.15,18.66,34.61,28.03,367.18,92.5,247.09-206.33,606.55-109.72-10.58-8.48-21.19-16.94-31.91-25.37-362.24-96.84-239.14,199.68-609.25,107.06Z"/>
        <path class="cls-2" d="M1670.47,62.01c12.64,8.77,25.24,17.58,37.78,26.42,391.58,92.32,248.87-183.32,631.36-86-11.61-7.97-23.25-15.9-34.96-23.8-384.73-97.23-240.18,175.51-634.18,83.38Z"/>
        <path class="cls-2" d="M2149.71,432.8c10.96,9.52,21.85,19.06,32.66,28.62,353.58,91.58,248.23-216.85,594.74-121.67-9.96-8.67-19.97-17.31-30.07-25.94-349.48-95.56-240.66,210.84-597.34,119Z"/>
        <path class="cls-2" d="M2220.83,495.79c10.63,9.6,21.18,19.22,31.64,28.86,346.71,90.86,249.22-221.77,589.16-127.56-9.63-8.74-19.34-17.46-29.12-26.17-342.95-94.67-241.83,216.09-591.68,124.87Z"/>
        <path class="cls-2" d="M2293.13,562.52c10.26,9.68,20.44,19.37,30.53,29.07,339.34,89.94,250.52-226.76,583.44-133.76-9.29-8.81-18.64-17.6-28.08-26.38-335.98-93.55-243.36,221.44-585.9,131.07Z"/>
        <path class="cls-2" d="M2359.52,626.47c9.89,9.73,19.71,19.48,29.44,29.24,332.28,88.89,252.02-231.35,578.17-139.68-8.94-8.86-17.96-17.71-27.06-26.55-329.25-92.3-245.05,226.37-580.55,136.98Z"/>
        <path class="cls-2" d="M2073.43,367.9c11.3,9.42,22.52,18.86,33.68,28.33,360.6,92.14,247.49-211.57,600.7-115.57-10.29-8.58-20.63-17.13-31.03-25.67-356.09-96.31-239.73,205.23-603.35,112.9Z"/>
        <path class="cls-2" d="M2487.47,757.93c9.14,9.82,18.19,19.65,27.16,29.48,317.79,86.25,255.7-240.24,567.96-151.78-8.24-8.93-16.55-17.86-24.95-26.78-315.38-89.24-249.13,235.97-570.18,149.07Z"/>
        <path class="cls-2" d="M2546.43,822.72c8.76,9.85,17.43,19.7,26.02,29.55,310.74,84.72,257.76-244.36,563.24-157.71-7.89-8.95-15.84-17.91-23.89-26.85-308.57-87.49-251.42,240.44-565.37,155.01Z"/>
        <path class="cls-2" d="M2605.69,890.94c8.37,9.86,16.64,19.72,24.82,29.59,303.35,82.95,260.08-248.53,558.48-163.95-7.53-8.96-15.12-17.93-22.79-26.89-301.47-85.5-253.98,244.99-560.51,161.25Z"/>
        <path class="cls-2" d="M2659.51,955.93c7.98,9.87,15.87,19.73,23.68,29.6,296.43,81.12,262.39-252.34,554.15-169.88-7.17-8.96-14.41-17.93-21.73-26.9-294.77-83.44-256.53,249.15-556.1,167.18Z"/>
        <path class="cls-2" d="M2423.51,690.76c9.53,9.78,18.97,19.57,28.33,29.38,325.18,87.68,253.71-235.79,573.07-145.6-8.59-8.9-17.28-17.8-26.03-26.68-322.46-90.89-246.96,231.16-575.37,142.9Z"/>
        <path class="cls-2" d="M2761.6,1088.41c7.21,9.84,14.34,19.68,21.39,29.51,282.69,76.96,267.37-259.65,545.9-181.93-6.45-8.94-13.01-17.88-19.62-26.83-281.45-78.83-261.96,257.18-547.67,179.25Z"/>
        <path class="cls-2" d="M2807.91,1153.16c6.85,9.82,13.61,19.63,20.29,29.43,276.18,74.73,269.86-263.02,542.15-187.8-6.11-8.91-12.33-17.83-18.61-26.76-275.12-76.37-264.72,260.9-543.84,185.13Z"/>
        <path class="cls-2" d="M2854.01,1221c6.46,9.78,12.86,19.55,19.17,29.31,269.52,72.27,272.52-266.41,538.4-193.94-5.78-8.88-11.64-17.76-17.57-26.66-268.63-73.67-267.61,264.64-540,191.29Z"/>
        <path class="cls-2" d="M2895.47,1285.28c6.12,9.73,12.16,19.46,18.12,29.17,263.39,69.81,275.01-269.47,535.01-199.74-5.46-8.83-11-17.68-16.6-26.54-262.65-70.99-270.38,268.05-536.53,197.11Z"/>
        <path class="cls-2" d="M2710.84,1020.9c7.6,9.86,15.13,19.72,22.55,29.57,289.63,79.15,264.8-256,550.01-175.79-6.82-8.96-13.72-17.92-20.69-26.88-288.17-81.25-259.16,253.17-551.87,173.1Z"/>
        <path class="cls-2" d="M2973.07,1415.38c5.44,9.62,10.8,19.23,16.09,28.82,251.51,64.51,279.99-275.32,528.59-211.43-4.83-8.73-9.74-17.47-14.72-26.23-251.07-65.22-275.87,274.56-529.97,208.84Z"/>
        <path class="cls-2" d="M3007.85,1478.54c5.12,9.55,10.18,19.09,15.16,28.61,246.03,61.78,282.31-277.98,525.66-217.07-4.55-8.67-9.17-17.35-13.84-26.05-245.71-62.28-278.48,277.54-526.98,214.51Z"/>
        <path class="cls-2" d="M2934.65,1349.25c5.78,9.68,11.49,19.35,17.11,29.01,257.45,67.26,277.48-272.41,531.78-205.5-5.15-8.79-10.37-17.59-15.66-26.4-256.88-68.21-273.11,271.32-533.23,202.88Z"/>
        <path class="cls-2" d="M737.4-22.19c14.18,9.04,28.34,18.12,42.47,27.24,425.21,95.76,250.5-190.54,670.29-89.4-13.07-8.34-26.2-16.64-39.33-24.9-421.59-100.76-246.29,182.36-673.43,87.05Z"/>
        <path class="cls-2" d="M835.13,41.03c14.04,9.22,28.06,18.48,42.03,27.79,420.4,96.73,247.81-196.71,663.03-94.79-12.93-8.52-25.89-17.01-38.88-25.45-417.25-101.6-243.64,188.78-666.18,92.46Z"/>
        <path class="cls-2" d="M927.13,102.34c13.87,9.39,27.71,18.82,41.52,28.28,415.4,97.52,245.68-202.42,656.11-99.9-12.74-8.69-25.53-17.34-38.37-25.95-412.66-102.27-241.53,194.75-659.26,97.57Z"/>
        <path class="cls-2" d="M1110.94,230.64c13.45,9.7,26.85,19.43,40.2,29.19,403.94,98.74,242.62-213.57,642.08-110.26-12.32-8.99-24.66-17.95-37.08-26.88-402.05-103.19-238.57,206.47-645.2,107.95Z"/>
        <path class="cls-2" d="M1198.75,294.98c13.2,9.84,26.35,19.7,39.42,29.59,397.78,99.12,241.75-218.77,635.28-115.31-12.05-9.13-24.16-18.22-36.34-27.29-396.27-103.41-237.75,211.98-638.37,113.01Z"/>
        <path class="cls-2" d="M1289.15,363.52c12.92,9.97,25.76,19.96,38.54,29.98,390.97,99.36,241.24-224.06,628.21-120.61-11.79-9.26-23.6-18.48-35.48-27.68-389.85-103.48-237.3,217.59-631.27,118.31Z"/>
        <path class="cls-2" d="M1373.23,429.55c12.61,10.08,25.15,20.19,37.62,30.32,384.22,99.44,241.15-228.92,621.59-125.64-11.47-9.37-23.01-18.71-34.61-28.03-383.45-103.38-237.27,222.78-624.59,123.35Z"/>
        <path class="cls-2" d="M1017.94,164.71c13.69,9.55,27.32,19.13,40.91,28.74,409.98,98.19,243.96-207.97,649.22-104.98-12.54-8.85-25.14-17.65-37.77-26.42-407.66-102.79-239.88,200.57-652.36,102.67Z"/>
        <path class="cls-2" d="M1538.24,566.43c11.92,10.28,23.79,20.58,35.56,30.9,369.7,99.12,242.01-238.29,608.42-135.88-10.81-9.56-21.7-19.1-32.66-28.62-369.61-102.67-238.3,232.84-611.31,133.59Z"/>
        <path class="cls-2" d="M1615.67,634.43c11.57,10.36,23.07,20.74,34.47,31.14,362.31,98.71,242.93-242.63,602.17-140.89-10.47-9.64-21.02-19.26-31.64-28.86-362.52-102.07-239.3,237.52-605,138.6Z"/>
        <path class="cls-2" d="M1694.45,706.43c11.19,10.43,22.27,20.89,33.28,31.35,354.4,98.11,244.18-246.99,595.77-146.15-10.1-9.71-20.27-19.4-30.53-29.07-354.92-101.26-240.68,242.26-598.52,143.87Z"/>
        <path class="cls-2" d="M1766.85,775.38c10.8,10.5,21.5,21,32.12,31.52,346.77,97.38,245.65-250.98,589.84-151.15-9.71-9.76-19.55-19.51-29.44-29.24-347.57-100.31-242.27,246.6-592.52,148.87Z"/>
        <path class="cls-2" d="M1455.25,496.31c12.29,10.18,24.5,20.39,36.64,30.62,377.21,99.37,241.4-233.6,615.07-130.66-11.17-9.47-22.38-18.91-33.68-28.33-376.79-103.12-237.6,227.8-618.02,128.37Z"/>
        <path class="cls-2" d="M1906.51,917.04c9.98,10.58,19.89,21.16,29.67,31.76,331.08,95.38,249.31-258.58,578.29-161.34-8.97-9.83-18.01-19.66-27.16-29.48-332.37-97.88-246.22,254.95-580.81,159.07Z"/>
        <path class="cls-2" d="M1970.93,986.83c9.57,10.61,19.06,21.21,28.45,31.83,323.39,94.16,251.4-262.06,572.91-166.34-8.57-9.86-17.26-19.71-26.02-29.55-324.9-96.43-248.46,258.8-575.34,164.06Z"/>
        <path class="cls-2" d="M2035.74,1060.3c9.15,10.62,18.2,21.24,27.16,31.86,315.36,92.71,253.72-265.54,567.46-171.58-8.19-9.87-16.46-19.73-24.82-29.59-317.1-94.75-250.97,262.67-569.8,169.31Z"/>
        <path class="cls-2" d="M2094.64,1130.27c8.73,10.62,17.38,21.24,25.93,31.86,307.81,91.17,256.05-268.7,562.47-176.56-7.81-9.86-15.7-19.73-23.68-29.6-309.74-92.98-253.48,266.18-564.72,174.3Z"/>
        <path class="cls-2" d="M1836.67,844.67c10.4,10.54,20.71,21.1,30.93,31.65,339.09,96.48,247.35-254.79,584.09-156.15-9.36-9.8-18.8-19.6-28.33-29.38-340.13-99.21-244.09,250.78-586.68,153.87Z"/>
        <path class="cls-2" d="M2206.51,1272.9c7.9,10.6,15.73,21.19,23.47,31.77,292.77,87.58,260.98-274.65,552.86-186.7-7.04-9.83-14.18-19.67-21.39-29.51-295.07-88.93-258.88,272.87-554.94,184.44Z"/>
        <path class="cls-2" d="M2257.34,1342.61c7.51,10.57,14.95,21.13,22.29,31.68,285.63,85.6,263.46-277.34,548.43-191.65-6.67-9.8-13.47-19.61-20.29-29.43-288.1-86.73-261.59,275.91-550.43,189.4Z"/>
        <path class="cls-2" d="M2307.99,1415.64c7.11,10.53,14.13,21.05,21.08,31.55,278.32,83.39,266.02-280.01,543.95-196.83-6.31-9.76-12.69-19.53-19.17-29.31-280.96-84.29-264.42,278.95-545.87,194.59Z"/>
        <path class="cls-2" d="M2353.61,1484.84c6.74,10.48,13.4,20.94,19.96,31.4,271.58,81.15,268.43-282.41,539.87-201.73-5.96-9.71-12.01-19.44-18.12-29.17-274.36-81.83-267.09,281.69-541.71,199.5Z"/>
        <path class="cls-2" d="M2150.86,1200.22c8.34,10.61,16.57,21.23,24.72,31.83,300.35,89.48,258.44-271.69,557.66-181.54-7.43-9.85-14.94-19.71-22.55-29.57-302.48-91.07-256.09,269.54-559.83,179.27Z"/>
        <path class="cls-2" d="M2439.22,1624.88c6.01,10.35,11.95,20.7,17.8,31.02,258.53,76.22,273.09-286.86,532-211.64-5.29-9.59-10.66-19.2-16.1-28.82-261.62-76.47-272.35,286.8-533.71,209.44Z"/>
        <path class="cls-2" d="M2477.71,1692.86c5.67,10.28,11.29,20.54,16.81,30.79,252.5,73.64,275.22-288.83,528.35-216.44-4.98-9.52-10.03-19.06-15.16-28.61-255.73-73.69-274.78,289.09-530,214.26Z"/>
        <path class="cls-2" d="M2515.83,1763.74c5.34,10.19,10.61,20.37,15.81,30.52,246.44,70.83,277.3-290.75,524.63-221.44-4.67-9.44-9.4-18.9-14.21-28.37-249.81-70.66-277.19,291.34-526.23,219.28Z"/>
        <path class="cls-2" d="M2550,1830.6c5.04,10.1,10,20.19,14.91,30.25,240.93,68.05,279.11-292.45,521.19-226.13-4.39-9.35-8.84-18.73-13.36-28.12-244.45-67.69-279.34,293.32-522.75,224Z"/>
        <path class="cls-2" d="M2396.79,1553.69c6.37,10.42,12.67,20.83,18.88,31.23,265.05,78.8,270.77-284.66,535.94-206.61-5.63-9.65-11.33-19.33-17.11-29.01-268-79.26-269.71,284.27-537.71,204.39Z"/>
        <path class="cls-2" d="M2613.83,1965.03c4.48,9.89,8.89,19.77,13.24,29.61,230.48,62.14,282.24-295.48,514.42-235.51-3.86-9.16-7.78-18.35-11.75-27.55-234.29-61.41-283.2,296.93-515.91,233.44Z"/>
        <path class="cls-2" d="M2642.46,2029.85c4.22,9.78,8.39,19.54,12.5,29.27,225.73,59.14,283.47-296.76,511.17-239.99-3.62-9.06-7.3-18.14-11.03-27.24-229.7-58.24-284.78,298.47-512.65,237.96Z"/>
        <path class="cls-2" d="M2670.83,2097.16c3.97,9.66,7.91,19.29,11.78,28.89,221.02,55.9,284.53-297.95,507.8-244.61-3.39-8.94-6.83-17.91-10.32-26.91-225.16-54.84-286.22,299.93-509.26,242.62Z"/>
        <path class="cls-2" d="M2696.31,2160.38c3.76,9.53,7.47,19.04,11.15,28.51,216.77,52.77,285.31-298.94,504.6-248.9-3.18-8.83-6.41-17.69-9.69-26.57-221.06-51.56-287.38,301.17-506.06,246.96Z"/>
        <path class="cls-2" d="M2582.24,1896.84c4.75,10.01,9.44,19.99,14.07,29.95,235.68,65.19,280.74-294,517.84-230.76-4.12-9.26-8.3-18.55-12.55-27.85-239.33-64.65-281.33,295.17-519.36,228.66Z"/>
        <path class="cls-2" d="M2744.2,2286.68c3.37,9.26,6.71,18.48,10.01,27.68,208.78,46.23,286.16-300.51,498.04-257.33-2.8-8.58-5.66-17.19-8.54-25.84-213.45-44.73-289.03,303.2-499.51,255.49Z"/>
        <path class="cls-2" d="M3270.18,2113.16c-2.64-8.46-5.31-16.95-8.03-25.46-210.04-41.34-289.48,303.96-496.27,259.49,3.21,9.11,6.39,18.2,9.52,27.24,205.17,42.98,286.23-301.06,494.78-261.28Z"/>
        <path class="cls-2" d="M2787.55,2409.75c3.06,8.96,6.06,17.88,9.06,26.76,201.58,39.51,286.03-301.46,491.3-265.28-2.48-8.32-5-16.67-7.55-25.05-206.67-37.75-289.7,304.58-492.81,263.56Z"/>
        <path class="cls-2" d="M2807.2,2468.24c2.91,8.8,5.81,17.56,8.67,26.29,198.34,36.17,285.6-301.68,487.92-268.95-2.34-8.18-4.71-16.4-7.12-24.64-203.64-34.3-289.67,304.99-489.46,267.3Z"/>
        <path class="cls-2" d="M2720.43,2222.75c3.56,9.4,7.08,18.77,10.57,28.11,212.75,49.6,285.85-299.79,501.4-253.09-3-8.71-6.03-17.45-9.1-26.22-217.23-48.23-288.3,302.24-502.86,251.19Z"/>
        <path class="cls-2" d="M2844.77,2584.3c2.69,8.46,5.34,16.9,7.98,25.28,192.16,29.3,284.05-301.6,480.78-275.95-2.09-7.89-4.21-15.82-6.35-23.78-197.94-27.23-288.92,305.29-482.4,274.45Z"/>
        <path class="cls-2" d="M2862.1,2639.5c2.58,8.3,5.15,16.55,7.69,24.76,189.32,25.91,282.94-301.29,477.15-279.13-1.98-7.75-3.99-15.52-6.02-23.33-195.35-23.75-288.21,305.16-478.81,277.71Z"/>
        <path class="cls-2" d="M3360.31,2438.18c-1.88-7.58-3.78-15.2-5.7-22.86-192.75-20.07-287.25,304.82-474.94,280.94,2.48,8.11,4.97,16.17,7.42,24.2,186.45,22.32,281.56-300.77,473.22-282.28Z"/>
        <path class="cls-2" d="M3372.4,2487.62c-1.79-7.42-3.61-14.89-5.43-22.39-190.37-16.58-286.15,304.3-471.14,283.83,2.42,7.92,4.81,15.81,7.19,23.64,183.81,18.9,280.05-300.07,469.38-285.09Z"/>
        <path class="cls-2" d="M2826.01,2525.69c2.79,8.64,5.56,17.24,8.31,25.81,195.23,32.82,284.94-301.73,484.46-272.47-2.21-8.05-4.46-16.12-6.72-24.22-200.77-30.84-289.42,305.23-486.05,270.88Z"/>
        <path class="cls-2" d="M3395.33,2585.2c-1.63-7.09-3.27-14.22-4.93-21.39-185.75-9.43-283.3,302.58-463.08,289.12,2.28,7.52,4.54,15.02,6.79,22.45,178.64,11.9,276.46-298.03,461.22-290.19Z"/>
        <path class="cls-2" d="M3405.82,2631.36c-1.56-6.92-3.12-13.89-4.72-20.88-183.58-5.93-281.67,301.43-458.97,291.4,2.22,7.33,4.42,14.61,6.62,21.85,176.19,8.46,274.45-296.69,457.06-292.37Z"/>
        <path class="cls-2" d="M3416.36,2678.65c-1.49-6.74-2.98-13.52-4.51-20.34-181.33-2.24-279.8,299.98-454.54,293.56,2.17,7.11,4.32,14.18,6.46,21.19,173.65,4.85,272.21-295.07,452.59-294.41Z"/>
        <path class="cls-2" d="M3425.96,2722.45c-1.42-6.56-2.86-13.16-4.32-19.8-179.23,1.26-277.89,298.35-450.22,295.38,2.12,6.9,4.22,13.75,6.32,20.55,171.25,1.41,269.95-293.27,448.23-296.13Z"/>
        <path class="cls-2" d="M2985.2,3042.76c2.07,6.68,4.14,13.31,6.18,19.89,168.87-2.02,267.61-291.25,443.79-297.6-1.37-6.38-2.75-12.79-4.15-19.25-177.13,4.76-275.87,296.5-445.82,296.96Z"/>
        <path class="cls-2" d="M3383.91,2536.01c-1.71-7.26-3.43-14.57-5.18-21.91-188.09-13.07-284.83,303.57-467.25,286.53,2.34,7.73,4.67,15.43,6.99,23.07,181.25,15.48,278.39-299.18,465.44-287.69Z"/>
        <path class="cls-2" d="M-42.98,21.34C-27.61,30.9-12.24,40.51,3.08,50.16c444.72,99.03,239.34-208.84,683.14-104.58-14.24-8.94-28.5-17.84-42.79-26.7C197.98-184.91,403.43,119.83-42.98,21.34Z"/>
        <path class="cls-2" d="M57.98,84.93c15.27,9.74,30.52,19.52,45.75,29.34C544.39,214.39,339.87-100.16,779.69,5.07c-14.13-9.12-28.29-18.2-42.47-27.24C295.52-126.97,500.56,184.57,57.98,84.93Z"/>
        <path class="cls-2" d="M163.29,152.97c15.14,9.91,30.25,19.86,45.32,29.85,435.86,101.17,233.28-220.11,668.38-113.98-13.97-9.3-27.98-18.56-42.03-27.79-437.21-105.75-233.66,212.64-671.66,111.92Z"/>
        <path class="cls-2" d="M262.49,218.8c14.98,10.07,29.9,20.18,44.8,30.32,430.8,102.06,231.06-225.33,661.17-118.48-13.79-9.46-27.63-18.89-41.52-28.28C494.51-4.17,695.66,320.47,262.49,218.8Z"/>
        <path class="cls-2" d="M-148.53-43.57c15.43,9.38,30.85,18.8,46.26,28.26,448.41,97.79,243.18-202.86,690.59-99.71-14.33-8.74-28.66-17.45-43.02-26.1C96.5-243.76,301.33,53.64-148.53-43.57Z"/>
        <path class="cls-2" d="M460.96,356.16c14.54,10.36,29.02,20.76,43.45,31.18,419.14,103.52,227.94-235.44,646.55-127.48-13.34-9.76-26.75-19.49-40.2-29.19-421.34-107.76-227.9,228.72-649.8,125.49Z"/>
        <path class="cls-2" d="M555.9,424.86c14.28,10.49,28.49,21.01,42.65,31.56,412.82,104.05,227.06-240.12,639.45-131.82-13.08-9.89-26.22-19.76-39.43-29.59-415.28-108.17-226.93,233.67-642.68,129.85Z"/>
        <path class="cls-2" d="M653.73,497.93c13.98,10.62,27.9,21.26,41.73,31.93,405.79,104.47,226.6-244.85,632.06-136.33-12.78-10.02-25.63-20.01-38.53-29.98-408.5-108.44-226.37,238.68-635.25,134.38Z"/>
        <path class="cls-2" d="M744.8,568.25c13.67,10.73,27.26,21.48,40.77,32.25,398.77,104.72,226.57-249.16,625.11-140.59-12.45-10.13-25.01-20.23-37.62-30.32-401.73-108.56-226.26,243.28-628.26,138.66Z"/>
        <path class="cls-2" d="M360.51,285.64c14.78,10.22,29.5,20.47,44.18,30.75,425.32,102.84,229.28-230.38,653.99-122.91-13.6-9.61-27.23-19.19-40.91-28.74-427.23-107.21-229.39,223.4-657.26,120.9Z"/>
        <path class="cls-2" d="M923.77,713.74c12.95,10.92,25.84,21.85,38.61,32.81,383.6,104.8,227.65-257.4,611.25-149.19-11.76-10.32-23.64-20.62-35.56-30.9-387.01-108.34-227.22,252.12-614.3,147.28Z"/>
        <path class="cls-2" d="M1007.89,785.93c12.58,11,25.07,22.01,37.47,33.04,375.83,104.62,228.66-261.16,604.62-153.36-11.4-10.4-22.89-20.78-34.47-31.14-379.45-108-228.23,256.19-607.62,151.47Z"/>
        <path class="cls-2" d="M1093.55,862.31c12.16,11.07,24.23,22.15,36.22,33.24,367.48,104.27,230.04-264.93,597.81-157.73-11.01-10.46-22.1-20.92-33.29-31.35-371.33-107.48-229.62,260.28-600.74,155.84Z"/>
        <path class="cls-2" d="M1172.35,935.4c11.76,11.12,23.41,22.26,34.99,33.4,359.41,103.77,231.63-268.34,591.46-161.87-10.63-10.52-21.33-21.02-32.12-31.52-363.46-106.82-231.25,264.01-594.33,159.99Z"/>
        <path class="cls-2" d="M833.72,639.24c13.33,10.82,26.58,21.68,39.74,32.54,391.47,104.84,226.92-253.29,618.26-144.82-12.14-10.23-24.35-20.43-36.64-30.62-394.65-108.53-226.55,247.71-621.37,142.9Z"/>
        <path class="cls-2" d="M1324.64,1085.49c10.9,11.2,21.69,22.42,32.4,33.64,342.71,102.28,235.52-274.77,578.98-170.28-9.81-10.59-19.69-21.18-29.67-31.76-347.14-104.98-235.26,271.07-581.71,168.41Z"/>
        <path class="cls-2" d="M1395.02,1159.39c10.46,11.23,20.84,22.46,31.11,33.7,334.48,101.31,237.67-277.67,573.1-174.39-9.39-10.61-18.87-21.22-28.45-31.83-339.09-103.85-237.53,274.29-575.76,172.52Z"/>
        <path class="cls-2" d="M1465.91,1237.19c10.02,11.24,19.93,22.49,29.74,33.73,325.89,100.13,240.07-280.55,567.09-178.71-8.96-10.62-18.01-21.25-27.16-31.86-330.65-102.48-240.06,277.5-569.67,176.84Z"/>
        <path class="cls-2" d="M1530.45,1311.26c9.58,11.24,19.07,22.48,28.45,33.73,317.77,98.85,242.43-283.12,561.53-182.82-8.55-10.62-17.2-21.24-25.93-31.87-322.69-101.02-242.59,280.4-564.04,180.95Z"/>
        <path class="cls-2" d="M1248.44,1008.83c11.34,11.17,22.59,22.35,33.74,33.53,351.24,103.12,233.43-271.57,585.27-166-10.23-10.56-20.53-21.11-30.93-31.66-355.48-106.01-233.1,267.55-588.07,164.12Z"/>
        <path class="cls-2" d="M1653.31,1462.26c8.71,11.22,17.32,22.43,25.84,33.64,301.55,95.76,247.36-287.91,550.68-191.18-7.73-10.59-15.55-21.18-23.47-31.77-306.81-97.58-247.92,285.82-553.05,189.32Z"/>
        <path class="cls-2" d="M1709.3,1536.08c8.29,11.19,16.49,22.38,24.59,33.55,293.84,94.01,249.75-290.04,545.59-195.29-7.34-10.56-14.77-21.11-22.29-31.68-299.24-95.67-250.56,288.24-547.89,193.42Z"/>
        <path class="cls-2" d="M1765.21,1613.41c7.87,11.15,15.63,22.29,23.31,33.42,285.93,92.03,252.21-292.12,540.4-199.59-6.94-10.51-13.97-21.02-21.08-31.55-291.48-93.51-253.3,290.63-542.63,197.72Z"/>
        <path class="cls-2" d="M1815.69,1686.71c7.47,11.1,14.84,22.19,22.14,33.27,278.62,90,254.47-293.95,535.59-203.68-6.57-10.46-13.22-20.93-19.96-31.4-284.32-91.31-255.85,292.76-537.77,201.82Z"/>
        <path class="cls-2" d="M1592.14,1385.32c9.15,11.24,18.2,22.47,27.16,33.7,309.75,97.41,244.84-285.55,556.13-186.92-8.14-10.61-16.39-21.22-24.72-31.83-314.83-99.41-245.18,283.13-558.57,185.05Z"/>
        <path class="cls-2" d="M1910.85,1835.08c6.69,10.98,13.32,21.93,19.87,32.87,264.46,85.45,258.66-297.27,526.16-211.99-5.86-10.32-11.79-20.66-17.8-31.02-270.43-86.45-260.7,296.65-528.23,210.14Z"/>
        <path class="cls-2" d="M1953.85,1907.11c6.35,10.9,12.63,21.77,18.83,32.63,257.92,83.03,260.47-298.69,521.7-216.04-5.53-10.24-11.12-20.51-16.81-30.79-264.04-83.87-262.85,298.34-523.72,214.19Z"/>
        <path class="cls-2" d="M1996.61,1982.23c6.01,10.8,11.93,21.59,17.8,32.35,251.31,80.35,262.17-300.04,517.09-220.27-5.2-10.15-10.47-20.33-15.81-30.52-257.61-81.03-264.93,299.96-519.08,218.44Z"/>
        <path class="cls-2" d="M2035.13,2053.11c5.69,10.71,11.31,21.4,16.87,32.06,245.34,77.68,263.56-301.19,512.79-224.27-4.91-10.06-9.88-20.14-14.92-30.25-251.79-78.23-266.71,301.36-514.74,222.45Z"/>
        <path class="cls-2" d="M1863.62,1759.65c7.09,11.04,14.09,22.08,21,33.08,271.56,87.84,256.6-295.64,530.91-207.76-6.22-10.4-12.51-20.8-18.88-31.23-277.39-89-258.28,294.74-533.03,205.9Z"/>
        <path class="cls-2" d="M2107.63,2195.62c5.11,10.49,10.16,20.95,15.16,31.39,233.99,71.91,265.67-303.11,504.15-232.31-4.36-9.84-8.79-19.71-13.24-29.62-240.78-72.21-269.64,303.77-506.07,230.53Z"/>
        <path class="cls-2" d="M2140.45,2264.34c4.86,10.37,9.66,20.71,14.41,31.03,228.86,68.95,266.31-303.86,499.96-236.17-4.11-9.73-8.28-19.49-12.5-29.27-235.81-69.11-270.71,304.73-501.87,234.42Z"/>
        <path class="cls-2" d="M2173.22,2335.68c4.61,10.24,9.18,20.44,13.69,30.62,223.77,65.72,266.69-304.47,495.57-240.18-3.88-9.61-7.81-19.24-11.78-28.89-230.91-65.77-271.54,305.58-497.48,238.45Z"/>
        <path class="cls-2" d="M2202.89,2402.67c4.4,10.1,8.75,20.17,13.06,30.21,219.18,62.57,266.77-304.92,491.38-243.92-3.67-9.48-7.39-18.98-11.15-28.51-226.52-62.51-272.06,306.24-493.29,242.22Z"/>
        <path class="cls-2" d="M2071.64,2123.33c5.4,10.61,10.74,21.19,16,31.75,239.62,74.92,264.72-302.2,508.53-228.23-4.62-9.96-9.32-19.94-14.07-29.95-246.24-75.33-268.27,302.62-510.46,226.43Z"/>
        <path class="cls-2" d="M2259.37,2536.43c4.02,9.8,8.01,19.56,11.95,29.29,210.58,55.9,266.09-305.38,482.75-251.3-3.3-9.19-6.64-18.42-10.01-27.68-218.37-55.65-272.29,307.09-484.7,249.68Z"/>
        <path class="cls-2" d="M2775.27,2374.51c-3.14-9.05-6.32-18.13-9.52-27.24-214.73-52.19-271.96,307.26-480.42,253.2,3.85,9.64,7.69,19.24,11.49,28.81,206.73,52.51,265.32-305.36,478.46-254.77Z"/>
        <path class="cls-2" d="M2311.55,2666.6c3.72,9.46,7.4,18.89,11.06,28.28,202.89,48.9,264.23-305.17,473.87-258.3-2.99-8.88-6-17.81-9.06-26.77-211.14-48.5-271.33,307.26-475.87,256.78Z"/>
        <path class="cls-2" d="M2335.6,2728.39c3.59,9.29,7.16,18.54,10.69,27.75,199.45,45.39,262.92-304.81,469.44-261.54-2.87-8.72-5.75-17.49-8.67-26.29-207.94-44.92-270.46,307.08-471.47,260.08Z"/>
        <path class="cls-2" d="M2231.21,2468.74c4.21,9.95,8.35,19.88,12.49,29.77,214.84,59.34,266.58-305.23,487.17-247.58-3.49-9.34-7-18.71-10.56-28.11-222.39-59.19-272.32,306.74-489.1,245.92Z"/>
        <path class="cls-2" d="M2382.39,2850.76c3.38,8.92,6.74,17.78,10.08,26.61,192.93,38.09,259.47-303.52,460.15-267.72-2.64-8.39-5.3-16.82-7.98-25.28-201.92-37.49-267.92,306.13-462.25,266.39Z"/>
        <path class="cls-2" d="M2869.67,2664.33c-2.54-8.21-5.11-16.47-7.69-24.76-199.2-33.79-266.32,305.37-457.61,269.27,3.31,8.71,6.58,17.39,9.84,26.02,189.94,34.44,257.46-302.61,455.46-270.52Z"/>
        <path class="cls-2" d="M2886.97,2720.54c-2.46-8.02-4.93-16.09-7.42-24.19-196.49-29.85-264.39,304.35-452.62,272.11,3.22,8.5,6.42,16.96,9.61,25.37,186.93,30.56,255.1-301.42,450.43-273.28Z"/>
        <path class="cls-2" d="M2902.89,2772.78c-2.37-7.84-4.78-15.72-7.19-23.64-193.97-26.09-262.37,303.17-447.78,274.64,3.15,8.29,6.29,16.54,9.42,24.73,184.17,26.84,252.67-300.07,445.55-275.73Z"/>
        <path class="cls-2" d="M2358.89,2789.01c3.48,9.11,6.94,18.18,10.37,27.2,196.18,41.84,261.36-304.28,464.93-264.64-2.75-8.56-5.51-17.17-8.31-25.81-204.9-41.3-269.35,306.71-467,263.25Z"/>
        <path class="cls-2" d="M2933.99,2875.46c-2.25-7.44-4.52-14.93-6.8-22.45-189.13-18.28-257.69,300.06-437.63,279.2,3.04,7.84,6.08,15.62,9.11,23.36,178.75,19.13,247.23-296.63,435.32-280.1Z"/>
        <path class="cls-2" d="M2948.64,2923.8c-2.2-7.23-4.4-14.52-6.63-21.85-186.84-14.42-255.18,298.19-432.53,281.12,3,7.61,5.99,15.16,8.98,22.65,176.18,15.32,244.36-294.58,430.17-281.93Z"/>
        <path class="cls-2" d="M2918.35,2823.78c-2.32-7.64-4.64-15.34-6.99-23.07-191.58-22.27-260.15,301.76-442.85,276.98,3.1,8.08,6.2,16.09,9.26,24.07,181.49,23.07,250.07-298.5,440.58-277.98Z"/>
        <path class="cls-2" d="M-721.75,143.14c16.42,10.22,32.83,20.48,49.21,30.78C-216.62,276.55-456.39-57.46,2.89,50.19c-15.33-9.65-30.68-19.25-46.06-28.82-460.9-107.19-221.11,223.92-678.59,121.77Z"/>
        <path class="cls-2" d="M-613.85,211.01c16.33,10.38,32.64,20.8,48.92,31.25C-112.85,345.9-351.79,5.7,103.55,114.3c-15.22-9.82-30.48-19.6-45.75-29.34-457.21-108.18-217.76,229.23-671.65,126.04Z"/>
        <path class="cls-2" d="M-501.23,283.44c16.2,10.54,32.37,21.12,48.49,31.72C-5.25,419.77-242.21,73.35,208.42,182.86c-15.08-9.99-30.17-19.94-45.32-29.85C-289.64,43.88-51.68,387.63-501.23,283.44Z"/>
        <path class="cls-2" d="M-395.04,353.35c16.04,10.68,32.03,21.4,47.98,32.15C95.52,490.94-138.52,138.89,307.11,249.15c-14.89-10.14-29.83-20.25-44.8-30.32C-185.66,108.9,49.84,458.43-395.04,353.35Z"/>
        <path class="cls-2" d="M-182.33,498.79c15.59,10.95,31.14,21.93,46.62,32.94,431.1,106.85,205.96-255.85,639.94-144.35-14.43-10.42-28.91-20.82-43.45-31.18C24.03,244.93,251.5,605.36-182.33,498.79Z"/>
        <path class="cls-2" d="M-80.43,571.33c15.33,11.07,30.61,22.17,45.82,33.29,424.81,107.37,205.36-260.1,632.99-148.17-14.16-10.55-28.37-21.07-42.65-31.56-430.57-111.75-208.43,253.58-636.16,146.44Z"/>
        <path class="cls-2" d="M24.7,648.38c15.02,11.19,30,22.4,44.87,33.63,417.75,107.82,205.19-264.36,625.72-152.11-13.84-10.67-27.75-21.31-41.73-31.93-423.65-112.13-208.01,258.05-628.87,150.41Z"/>
        <path class="cls-2" d="M122.66,722.4c14.7,11.29,29.35,22.6,43.9,33.93,410.66,108.11,205.43-268.24,618.84-155.79-13.52-10.77-27.1-21.53-40.77-32.25-416.69-112.38-208.04,262.11-621.97,154.12Z"/>
        <path class="cls-2" d="M-290.04,424.19c15.84,10.82,31.63,21.67,47.36,32.55,437.2,106.18,207.04-251.24,647.19-140.31-14.69-10.29-29.4-20.53-44.18-30.76-442.7-110.64-210.67,244.37-650.38,138.52Z"/>
        <path class="cls-2" d="M315.56,875.32c13.98,11.46,27.88,22.94,41.69,34.44,395.2,108.33,207.01-275.58,604.98-163.16-12.8-10.95-25.65-21.89-38.61-32.81-401.51-112.47-209.28,269.86-608.05,161.53Z"/>
        <path class="cls-2" d="M406.4,951.08c13.6,11.54,27.1,23.09,40.51,34.65,387.22,108.24,208.27-278.91,598.28-166.72-12.4-11.03-24.89-22.04-37.47-33.04-393.65-112.31-210.43,273.4-601.32,165.1Z"/>
        <path class="cls-2" d="M499.06,1031.17c13.16,11.6,26.24,23.21,39.23,34.84,378.62,108,209.87-282.22,591.33-170.41-11.98-11.1-24.06-22.18-36.22-33.24-385.19-112-211.94,276.94-594.33,168.82Z"/>
        <path class="cls-2" d="M584.43,1107.76c12.75,11.65,25.4,23.32,37.96,34.99,370.26,107.63,211.63-285.2,584.8-173.9-11.57-11.15-23.23-22.28-34.99-33.4-376.95-111.55-213.68,280.14-587.76,172.32Z"/>
        <path class="cls-2" d="M218.43,797.06c14.37,11.38,28.65,22.78,42.85,34.19,403.25,108.28,206.03-271.93,612.01-159.43-13.17-10.87-26.42-21.72-39.75-32.54-409.4-112.49-208.46,266-615.12,157.78Z"/>
        <path class="cls-2" d="M749.85,1264.94c11.86,11.73,23.62,23.47,35.28,35.21,352.86,106.44,215.79-290.77,571.75-180.97-10.69-11.22-21.5-22.43-32.4-33.63-359.81-110.19-217.86,286.16-574.63,179.4Z"/>
        <path class="cls-2" d="M826.52,1342.28c11.41,11.76,22.73,23.51,33.94,35.27,344.24,105.64,218.03-293.25,565.51-184.41-10.27-11.24-20.64-22.47-31.11-33.7-351.34-109.3-220.17,288.87-568.34,182.84Z"/>
        <path class="cls-2" d="M903.92,1423.7c10.94,11.76,21.78,23.53,32.53,35.3,335.2,104.64,220.46-295.7,559.05-188.03-9.81-11.24-19.73-22.49-29.74-33.73-342.45-108.2-222.71,291.55-561.84,186.46Z"/>
        <path class="cls-2" d="M974.55,1501.21c10.49,11.77,20.88,23.54,31.18,35.3,326.65,103.53,222.8-297.87,553.01-191.47-9.39-11.24-18.86-22.49-28.45-33.73-334.02-107-225.22,293.95-555.75,189.9Z"/>
        <path class="cls-2" d="M667.01,1184.67c12.32,11.7,24.54,23.4,36.66,35.11,361.77,107.12,213.59-288.01,578.35-177.37-11.15-11.19-22.39-22.37-33.74-33.53-368.59-110.96-215.62,283.17-581.28,175.8Z"/>
        <path class="cls-2" d="M1109.52,1659.23c9.59,11.74,19.09,23.48,28.48,35.21,309.49,100.81,227.55-301.85,541-198.49-8.52-11.21-17.13-22.42-25.84-33.64-317.13-104.1-230.39,298.39-543.65,196.92Z"/>
        <path class="cls-2" d="M1171.29,1736.49c9.17,11.71,18.23,23.42,27.2,35.12,301.27,99.26,229.81-303.58,535.26-201.93-8.11-11.17-16.3-22.35-24.59-33.55-309.07-102.45-232.87,300.35-537.86,200.36Z"/>
        <path class="cls-2" d="M1233.18,1817.46c8.72,11.68,17.34,23.34,25.88,34.99,292.85,97.47,232.03-305.25,529.32-205.56-7.68-11.13-15.46-22.27-23.31-33.42-300.8-100.55-235.4,302.25-531.88,203.99Z"/>
        <path class="cls-2" d="M1289.27,1894.21c8.31,11.63,16.54,23.24,24.66,34.84,285.05,95.61,234.02-306.71,523.75-209.02-7.29-11.08-14.68-22.17-22.14-33.27-293.15-98.62-237.69,303.92-526.28,207.45Z"/>
        <path class="cls-2" d="M1042.22,1578.71c10.05,11.76,20,23.52,29.85,35.27,318.17,102.27,225.15-299.89,547.07-194.91-8.96-11.23-18.01-22.47-27.16-33.7-325.67-105.66-227.76,296.2-549.77,193.34Z"/>
        <path class="cls-2" d="M1395.63,2049.65c7.52,11.5,14.97,22.98,22.33,34.45,269.9,91.39,237.47-309.23,512.62-216.1-6.54-10.94-13.17-21.9-19.87-32.87-278.32-94.2-241.88,306.89-515.08,214.52Z"/>
        <path class="cls-2" d="M1444.02,2125.15c7.16,11.42,14.27,22.83,21.27,34.21,262.87,89.11,238.85-310.28,507.25-219.56-6.2-10.86-12.48-21.73-18.83-32.63-271.43-91.84-243.66,308.15-509.69,217.98Z"/>
        <path class="cls-2" d="M1492.39,2203.92c6.8,11.33,13.56,22.64,20.22,33.93,255.81,86.57,239.99-311.22,501.66-223.2-5.87-10.76-11.79-21.55-17.8-32.35-264.54-89.21-245.24,309.31-504.08,221.62Z"/>
        <path class="cls-2" d="M1536.21,2278.25c6.49,11.23,12.92,22.45,19.27,33.63,249.38,84.02,240.83-311.99,496.38-226.65-5.55-10.67-11.17-21.35-16.87-32.06-258.28-86.58-246.52,310.28-498.78,225.08Z"/>
        <path class="cls-2" d="M1342.72,1970.61c7.92,11.57,15.75,23.12,23.49,34.66,277.49,93.61,235.81-308.01,518.26-212.49-6.91-11.01-13.92-22.04-21-33.08-285.74-96.52-239.85,305.45-520.75,210.91Z"/>
        <path class="cls-2" d="M1619.45,2427.76c5.91,11.01,11.76,21.99,17.55,32.95,237.19,78.42,241.64-313.12,485.65-233.64-5-10.44-10.05-20.9-15.16-31.39-246.48-80.83-248.23,311.81-488.04,232.09Z"/>
        <path class="cls-2" d="M1657.53,2499.88c5.66,10.88,11.25,21.74,16.8,32.56,231.69,75.5,241.56-313.45,480.39-237.02-4.75-10.31-9.55-20.66-14.41-31.03-241.16-77.83-248.62,312.32-482.79,235.48Z"/>
        <path class="cls-2" d="M1695.83,2574.75c5.41,10.75,10.78,21.46,16.09,32.14,226.24,72.3,241.14-313.64,474.86-240.53-4.51-10.18-9.08-20.39-13.69-30.62-235.9-74.57-248.71,312.72-477.26,239.01Z"/>
        <path class="cls-2" d="M1730.77,2645.06c5.2,10.6,10.36,21.17,15.47,31.7,221.32,69.15,240.42-313.67,469.57-243.82-4.31-10.04-8.66-20.11-13.06-30.21-231.2-71.35-248.46,312.92-471.98,242.32Z"/>
        <path class="cls-2" d="M1577.99,2351.91c6.2,11.13,12.33,22.23,18.39,33.31,243.25,81.34,241.39-312.62,491.11-230.09-5.27-10.56-10.6-21.14-16-31.75-252.33-83.82-247.5,311.1-493.51,228.53Z"/>
        <path class="cls-2" d="M1798.14,2785.39c4.84,10.28,9.63,20.52,14.4,30.72,212.14,62.39,237.99-313.21,458.65-250.33-3.95-9.73-7.93-19.49-11.95-29.29-222.46-64.47-247.01,312.84-461.1,248.9Z"/>
        <path class="cls-2" d="M2296.69,2629.34c-3.81-9.56-7.62-19.18-11.49-28.81-218.59-60.95-245.82,312.52-455.7,252.01,4.69,10.11,9.35,20.17,13.97,30.2,208.02,58.93,236.34-312.73,453.22-253.4Z"/>
        <path class="cls-2" d="M1861.46,2921.85c4.55,9.91,9.07,19.79,13.56,29.62,203.96,55.19,234.29-312.01,447.46-256.52-3.65-9.39-7.35-18.81-11.06-28.28-214.75-57.17-244.27,312-449.96,255.18Z"/>
        <path class="cls-2" d="M1891.04,2986.55c4.43,9.72,8.85,19.41,13.23,29.04,200.29,51.55,232.07-311.13,441.9-259.37-3.54-9.21-7.11-18.46-10.7-27.75-211.33-53.47-242.5,311.31-444.44,258.09Z"/>
        <path class="cls-2" d="M1764.41,2714.38c5.01,10.45,9.98,20.86,14.92,31.23,216.69,65.89,239.39-313.53,464.24-247.05-4.12-9.89-8.29-19.82-12.49-29.77-226.78-68.03-247.91,312.97-466.67,245.58Z"/>
        <path class="cls-2" d="M2392.35,2877.44c-3.35-8.82-6.7-17.7-10.08-26.61-204.92-45.69-238.09,309.25-432.96,263.64,4.25,9.31,8.48,18.57,12.68,27.77,193.38,43.87,226.77-308.72,430.36-264.8Z"/>
        <path class="cls-2" d="M2414.09,2934.93c-3.26-8.62-6.54-17.3-9.84-26.02-202.02-41.77-235.59,307.92-427.23,266.15,4.18,9.08,8.33,18.12,12.47,27.11,190.23,39.99,223.85-307.2,424.6-267.24Z"/>
        <path class="cls-2" d="M1919.91,3049.96c4.33,9.52,8.65,19,12.94,28.43,196.82,47.83,229.59-310.06,436.28-262.11-3.44-9.02-6.89-18.09-10.37-27.2-208.1-49.7-240.47,310.41-438.85,260.88Z"/>
        <path class="cls-2" d="M69.4,682.05c-14.88-11.24-29.85-22.44-44.87-33.63-435.03-114.67-184.4,277.27-613.99,167.97,16.01,11.72,31.95,23.46,47.81,35.22,426.57,109.41,179.11-284.35,611.05-169.56Z"/>
        <path class="cls-2" d="M166.39,756.37c-14.56-11.33-29.19-22.64-43.9-33.93-428.13-114.9-184.69,280.96-607.53,171.44,15.7,11.81,31.31,23.64,46.85,35.48,419.63,109.58,179.69-287.97,604.57-173Z"/>
        <path class="cls-2" d="M357.09,909.81c-13.81-11.5-27.7-22.98-41.69-34.44-412.98-115.04-186.37,287.96-594.24,178.3,14.98,11.97,29.86,23.94,44.66,35.94,404.35,109.63,181.85-294.8,591.27-179.79Z"/>
        <path class="cls-2" d="M446.76,985.77c-13.42-11.57-26.92-23.11-40.51-34.65C1.16,836.19,218.59,1242.26-181.46,1132.69c14.59,12.03,29.08,24.07,43.5,36.12,396.39,109.49,183.31-297.89,584.72-183.04Z"/>
        <path class="cls-2" d="M538.12,1066.05c-12.98-11.63-26.06-23.24-39.23-34.84-396.52-114.7-189.31,294.3-580.82,184.94,14.17,12.08,28.24,24.18,42.21,36.29,387.73,109.22,185.09-300.94,577.83-186.39Z"/>
        <path class="cls-2" d="M622.24,1142.8c-12.56-11.67-25.21-23.34-37.96-34.99-388.17-114.35-191.1,297.14-574.26,188.11,13.75,12.13,27.39,24.27,40.95,36.42,379.27,108.85,186.97-303.68,571.27-189.54Z"/>
        <path class="cls-2" d="M261.12,831.3c-14.19-11.42-28.48-22.81-42.85-34.19-420.88-115.03-185.33,284.48-601.03,174.84,15.36,11.89,30.63,23.79,45.82,35.72,412.32,109.66,180.6-291.41,598.06-176.36Z"/>
        <path class="cls-2" d="M784.98,1300.19c-11.65-11.74-23.42-23.48-35.28-35.21-370.67-113.23-195.32,302.46-560.88,194.45,12.85,12.2,25.61,24.4,38.26,36.61,361.55,107.71,191.18-308.76,557.9-195.85Z"/>
        <path class="cls-2" d="M860.32,1377.61c-11.22-11.76-22.53-23.52-33.94-35.27-361.97-112.48-197.58,304.84-554.33,197.52,12.41,12.22,24.71,24.44,36.92,36.66,352.73,106.96,193.37-311.02,551.36-198.91Z"/>
        <path class="cls-2" d="M936.3,1459.05c-10.74-11.77-21.59-23.53-32.53-35.3-352.79-111.54-200.02,307.18-547.47,200.73,11.94,12.22,23.76,24.46,35.5,36.68,343.42,106.03,195.68-313.22,544.5-202.11Z"/>
        <path class="cls-2" d="M1005.58,1536.57c-10.28-11.77-20.7-23.53-31.19-35.3-344.07-110.52-202.37,309.26-540.96,203.77,11.48,12.23,22.86,24.46,34.15,36.68,334.56,105.02,197.88-315.15,538-205.14Z"/>
        <path class="cls-2" d="M703.51,1219.84c-12.11-11.71-24.34-23.42-36.66-35.11-379.65-113.87-193.1,299.83-567.7,191.23,13.31,12.17,26.53,24.35,39.64,36.53,370.65,108.36,188.98-306.26,564.71-192.65Z"/>
        <path class="cls-2" d="M1137.86,1694.5c-9.39-11.73-18.89-23.47-28.49-35.21-326.52-107.99-207.07,313.05-527.74,209.94,10.56,12.2,21.05,24.39,31.42,36.58,316.71,102.52,202.13-318.65,524.8-211.31Z"/>
        <path class="cls-2" d="M1198.35,1771.67c-8.96-11.69-18.03-23.41-27.2-35.12-318.1-106.52-209.26,314.7-521.29,212.96,10.14,12.18,20.18,24.33,30.13,36.5,308.16,101.08,204.03-320.15,518.36-214.33Z"/>
        <path class="cls-2" d="M1258.92,1852.51c-8.53-11.65-17.16-23.32-25.88-34.99-309.45-104.84-211.41,316.29-514.54,216.13,9.69,12.13,19.29,24.26,28.8,36.37,299.34,99.42,205.86-321.57,511.62-217.51Z"/>
        <path class="cls-2" d="M1313.8,1929.11c-8.13-11.6-16.35-23.22-24.66-34.84-301.42-103.08-213.29,317.66-508.14,219.16,9.28,12.08,18.47,24.16,27.57,36.22,291.14,97.7,207.39-322.77,505.23-220.54Z"/>
        <path class="cls-2" d="M1071.93,1614.04c-9.85-11.75-19.8-23.51-29.85-35.27-335.42-109.35-204.7,311.19-534.47,206.79,11.03,12.21,21.97,24.44,32.8,36.65,325.77,103.86,200.01-316.94,531.52-208.17Z"/>
        <path class="cls-2" d="M1417.82,2084.16c-7.36-11.47-14.81-22.95-22.33-34.45-285.78-99.05-216.49,320.03-495.14,225.34,8.49,11.96,16.9,23.91,25.23,35.83,275.18,93.75,209.79-324.79,492.24-226.72Z"/>
        <path class="cls-2" d="M1465.15,2159.42c-7.02-11.38-14.11-22.79-21.27-34.21-278.53-96.86-217.68,320.97-488.78,228.38,8.13,11.88,16.19,23.75,24.16,35.59,267.76,91.6,210.56-325.56,485.89-229.76Z"/>
        <path class="cls-2" d="M1512.48,2237.91c-6.67-11.29-13.39-22.6-20.21-33.93-271.24-94.4-218.63,321.81-482.11,231.56,7.78,11.79,15.47,23.57,23.1,35.31,260.27,89.19,211.05-326.22,479.22-232.94Z"/>
        <path class="cls-2" d="M1555.35,2311.94c-6.35-11.19-12.78-22.4-19.27-33.64-264.6-91.91-219.24,322.46-475.77,234.59,7.45,11.69,14.84,23.37,22.16,35.01,253.46,86.75,211.2-326.7,472.88-235.96Z"/>
        <path class="cls-2" d="M1366.08,2005.33c-7.73-11.55-15.58-23.09-23.49-34.66-293.63-101.18-214.98,318.89-501.76,222.19,8.88,12.03,17.68,24.05,26.4,36.04,283.18,95.83,208.71-323.84,498.86-223.57Z"/>
        <path class="cls-2" d="M1636.87,2460.77c-5.8-10.95-11.65-21.93-17.55-32.95-252.06-86.4-219.48,323.32-462.8,240.72,6.88,11.46,13.69,22.89,20.45,34.3,240.55,81.34,210.46-327.17,459.9-242.08Z"/>
        <path class="cls-2" d="M1674.21,2532.51c-5.54-10.83-11.15-21.68-16.8-32.57-246.39-83.5-219.11,323.5-456.42,243.7,6.62,11.34,13.19,22.64,19.72,33.91,234.7,78.49,209.59-327.16,453.51-245.04Z"/>
        <path class="cls-2" d="M1711.79,2606.95c-5.31-10.68-10.67-21.39-16.09-32.14-240.78-80.29-218.34,323.51-449.7,246.79,6.38,11.18,12.72,22.34,19.01,33.46,228.88,75.33,208.31-326.96,446.77-248.11Z"/>
        <path class="cls-2" d="M1746.12,2676.82c-5.11-10.53-10.27-21.1-15.47-31.7-235.77-77.1-217.25,323.33-443.27,249.68,6.18,11.04,12.31,22.04,18.41,33,223.67,72.21,206.75-326.6,440.33-250.98Z"/>
        <path class="cls-2" d="M1596.26,2385.29c-6.07-11.08-12.2-22.18-18.4-33.31-258.29-89.29-219.53,322.96-469.42,237.6,7.16,11.59,14.26,23.15,21.29,34.68,246.97,84.17,211-327.01,466.52-238.97Z"/>
        <path class="cls-2" d="M1812.42,2816.18c-4.76-10.2-9.57-20.44-14.4-30.72-226.43-70.22-214.05,322.4-430.05,255.4,5.83,10.7,11.61,21.35,17.38,31.96,213.92,65.43,202.58-325.24,427.07-256.64Z"/>
        <path class="cls-2" d="M1843.35,2882.81c-4.63-10.03-9.28-20.09-13.97-30.2-222.27-66.65-211.99,321.63-423.51,258.09,5.69,10.51,11.34,20.97,16.96,31.39,209.55,61.93,200.07-324.28,420.52-259.29Z"/>
        <path class="cls-2" d="M1444.74,3182.74c5.56,10.3,11.08,20.56,16.57,30.77,205.23,58.11,197.13-323.02,413.59-261.97-4.5-9.83-9.01-19.7-13.57-29.62-218.16-62.78-209.52,320.61-416.6,260.82Z"/>
        <path class="cls-2" d="M1779.2,2745.68c-4.94-10.38-9.89-20.79-14.92-31.23-231.04-73.79-215.86,322.98-436.8,252.52,6,10.87,11.95,21.71,17.87,32.5,218.74,68.96,204.87-326.04,433.85-253.79Z"/>
        <path class="cls-2" d="M50.81,1332.39c-13.55-12.15-27.2-24.29-40.95-36.42-397.22-115.19-164.33,317.06-554.41,209.14,14.74,12.6,29.39,25.21,43.94,37.82,386.26,107.68,158.02-325.51,551.42-210.54Z"/>
        <path class="cls-2" d="M226.94,1496.1c-12.65-12.21-25.41-24.41-38.27-36.61-379.86-114.02-168.19,321.99-540.83,215.32,13.88,12.65,27.67,25.3,41.35,37.96,368.65,106.34,161.84-330.37,537.75-216.67Z"/>
        <path class="cls-2" d="M308.81,1576.58c-12.2-12.22-24.51-24.45-36.92-36.66-371.14-113.28-170.19,324.18-534.03,218.27,13.45,12.66,26.8,25.32,40.05,37.98,359.8,105.53,163.75-332.5,530.9-219.59Z"/>
        <path class="cls-2" d="M391.66,1661.22c-11.73-12.23-23.56-24.46-35.5-36.68-361.91-112.37-172.3,326.31-526.79,221.31,12.99,12.66,25.88,25.33,38.66,37.99,350.41,104.57,165.72-334.55,523.62-222.62Z"/>
        <path class="cls-2" d="M467.44,1741.77c-11.28-12.23-22.66-24.45-34.15-36.68-353.1-111.39-174.29,328.19-519.81,224.17,12.54,12.66,25,25.32,37.34,37.97,341.45,103.54,167.52-336.35,516.61-225.46Z"/>
        <path class="cls-2" d="M138.65,1412.54c-13.12-12.18-26.33-24.36-39.65-36.53-388.79-114.68-166.18,319.56-547.81,212.2,14.33,12.63,28.55,25.26,42.69,37.9,377.71,107.07,159.88-327.98,544.77-213.57Z"/>
        <path class="cls-2" d="M612.92,1905.87c-10.38-12.19-20.85-24.38-31.42-36.59-335.23-108.99-178.09,331.58-505.38,229.89,11.65,12.62,23.22,25.23,34.68,37.85,323.25,101.1,170.83-339.53,502.13-231.15Z"/>
        <path class="cls-2" d="M679.85,1986.06c-9.94-12.16-19.99-24.32-30.13-36.5-326.62-107.62-179.77,333.01-498.22,232.65,11.23,12.59,22.37,25.17,33.4,37.75,314.47,99.72,172.21-340.85,494.94-233.9Z"/>
        <path class="cls-2" d="M747.16,2070.08c-9.51-12.11-19.1-24.24-28.8-36.37-317.71-106.03-181.34,334.37-490.64,235.53,10.79,12.55,21.49,25.09,32.1,37.61,305.38,98.14,173.42-342.06,487.34-236.77Z"/>
        <path class="cls-2" d="M808.43,2149.71c-9.1-12.06-18.29-24.13-27.57-36.22-309.43-104.38-182.63,335.51-483.38,238.24,10.38,12.5,20.68,24.98,30.89,37.45,296.93,96.5,174.34-343.06,480.06-239.48Z"/>
        <path class="cls-2" d="M540.27,1822.26c-10.83-12.22-21.77-24.43-32.8-36.65-344.31-110.28-176.2,329.93-512.77,226.99,12.11,12.65,24.12,25.28,36.03,37.92,332.49,102.4,169.22-337.99,509.54-228.26Z"/>
        <path class="cls-2" d="M925.45,2310.94c-8.33-11.93-16.73-23.87-25.23-35.83-293.21-100.58-184.5,337.38-468.46,243.73,9.61,12.36,19.14,24.71,28.58,37.04,280.36,92.76,175.39-344.6,465.12-244.95Z"/>
        <path class="cls-2" d="M979.13,2389.24c-7.97-11.85-16.03-23.71-24.16-35.59-285.64-98.5-184.99,338.06-461.1,246.39,9.25,12.29,18.43,24.55,27.52,36.8,272.63,90.73,175.45-345.11,457.74-247.6Z"/>
        <path class="cls-2" d="M1033.13,2470.91c-7.63-11.75-15.33-23.52-23.11-35.31-278-96.16-185.17,338.61-453.33,249.17,8.9,12.18,17.73,24.36,26.48,36.51,264.81,88.43,175.17-345.45,449.96-250.37Z"/>
        <path class="cls-2" d="M1082.35,2547.97c-7.32-11.64-14.71-23.32-22.17-35.01-271.04-93.77-185.02,338.96-445.92,251.79,8.58,12.09,17.1,24.15,25.55,36.19,257.69,86.1,174.56-345.61,442.53-252.97Z"/>
        <path class="cls-2" d="M867.09,2228.97c-8.71-12-17.51-24.01-26.4-36.05-301.35-102.59-183.68,336.5-476.09,240.94,10,12.44,19.91,24.86,29.73,37.27,288.68,94.74,175.01-343.9,472.75-242.17Z"/>
        <path class="cls-2" d="M1176.86,2702.92c-6.76-11.41-13.57-22.84-20.45-34.3-257.82-88.44-183.67,339.15-430.72,257.04,8.01,11.85,15.97,23.67,23.86,35.45,244.14,80.91,172.27-345.36,427.31-258.19Z"/>
        <path class="cls-2" d="M1220.58,2777.62c-6.52-11.28-13.09-22.58-19.72-33.91-251.82-85.6-182.49,338.97-423.23,259.55,7.76,11.72,15.47,23.39,23.13,35.04,237.99,78.13,170.62-344.94,419.82-260.68Z"/>
        <path class="cls-2" d="M1264.9,2855.13c-6.29-11.11-12.63-22.27-19.01-33.46-245.86-82.45-180.87,338.56-415.35,262.15,7.53,11.55,15,23.07,22.44,34.56,231.88,75.06,168.53-344.28,411.93-263.25Z"/>
        <path class="cls-2" d="M1305.68,2927.87c-6.09-10.96-12.23-21.96-18.41-33-240.52-79.29-178.99,337.95-407.83,264.55,7.32,11.39,14.61,22.75,21.84,34.07,226.37,71.99,166.22-343.42,404.4-265.62Z"/>
        <path class="cls-2" d="M1129.62,2624.33c-7.03-11.53-14.13-23.1-21.29-34.68-264.39-91.25-184.53,339.15-438.48,254.38,8.29,11.97,16.52,23.93,24.69,35.85,250.88,83.63,173.61-345.58,435.08-255.55Z"/>
        <path class="cls-2" d="M110.67,2137.08c-11.46-12.61-23.03-25.22-34.68-37.85-343.25-107.16-142.91,354.31-475.75,256.45,12.85,13.01,25.61,26.02,38.26,39.01,328.8,97.26,132.89-364.14,472.17-257.61Z"/>
        <path class="cls-2" d="M184.78,2220.03c-11.04-12.57-22.17-25.15-33.41-37.75-334.57-105.76-143.89,355.51-467.85,258.99,12.44,12.98,24.79,25.93,37.04,38.88,319.94,95.88,133.57-365.2,464.22-260.12Z"/>
        <path class="cls-2" d="M259.7,2306.91c-10.61-12.53-21.31-25.06-32.1-37.61-325.55-104.17-144.71,356.59-459.43,261.58,12.02,12.91,23.94,25.82,35.78,38.71,310.75,94.32,134.06-366.12,455.75-262.68Z"/>
        <path class="cls-2" d="M328.24,2389.25c-10.21-12.47-20.51-24.96-30.89-37.45-317.11-102.53-145.27,357.45-451.32,263.99,11.63,12.86,23.16,25.7,34.61,38.53,302.16,92.72,134.27-366.81,447.6-265.06Z"/>
        <path class="cls-2" d="M30.59,2050.59c-11.91-12.64-23.92-25.28-36.03-37.92-352.33-108.49-141.71,352.9-483.84,253.73,13.28,13.05,26.46,26.09,39.55,39.12,338.06,98.6,131.97-362.85,480.31-254.93Z"/>
        <path class="cls-2" d="M460.22,2555.96c-9.45-12.33-18.97-24.68-28.58-37.05-300.47-98.8-145.62,358.67-434.55,268.71,10.87,12.71,21.65,25.4,32.36,38.07,285.24,89.11,133.87-367.63,430.77-269.73Z"/>
        <path class="cls-2" d="M521.27,2636.91c-9.1-12.25-18.27-24.51-27.52-36.8-292.67-96.78-145.36,359.01-426.23,270.94,10.52,12.62,20.96,25.22,31.33,37.79,277.29,87.16,133.23-367.74,422.43-271.93Z"/>
        <path class="cls-2" d="M583.05,2721.35c-8.75-12.14-17.58-24.32-26.48-36.51-284.75-94.49-144.76,359.16-417.45,273.22,10.17,12.52,20.27,25.01,30.3,37.48,269.25,84.97,132.22-367.64,413.63-274.19Z"/>
        <path class="cls-2" d="M639.7,2801.01c-8.45-12.04-16.97-24.11-25.55-36.19-277.51-92.17-143.86,359.11-409.06,275.33,9.86,12.41,19.65,24.78,29.38,37.14,261.89,82.74,130.94-367.34,405.23-276.28Z"/>
        <path class="cls-2" d="M394.22,2471.2c-9.83-12.41-19.74-24.83-29.73-37.27-308.85-100.77-145.58,358.13-443.13,266.33,11.25,12.79,22.41,25.56,33.48,38.32,293.75,91.02,134.23-367.31,439.38-267.38Z"/>
        <path class="cls-2" d="M749.43,2961.18c-7.9-11.78-15.85-23.61-23.86-35.46-263.65-86.95-141.02,358.38-391.89,279.45,9.3,12.15,18.52,24.26,27.7,36.34,247.84,77.76,127.31-366.03,388.05-280.33Z"/>
        <path class="cls-2" d="M694.42,2879.94c-8.16-11.92-16.4-23.87-24.69-35.85-270.56-89.69-142.63,358.86-400.65,277.39,9.57,12.29,19.08,24.53,28.52,36.76,254.83,80.37,129.32-366.81,396.81-278.3Z"/>
        <path class="cls-2" d="M29.34,2825.77c-10.71-12.67-21.49-25.36-32.36-38.07-307.16-94.17-99.69,381.95-392.78,297.29,12.23,12.96,24.39,25.9,36.47,38.83,289.37,83.83,85.17-391.31,388.67-298.05Z"/>
        <path class="cls-2" d="M98.73,2908.92c-10.37-12.58-20.81-25.17-31.33-37.8-299.17-92.13-98.77,381.74-383.74,298.93,11.89,12.86,23.72,25.69,35.46,38.51,281.33,81.93,84-390.81,379.6-299.64Z"/>
      </g>
    </g>
  </g>
</svg>