<svg width="194" height="86" viewBox="0 0 194 86" fill="none" xmlns="http://www.w3.org/2000/svg">
<path d="M2.993 36.653H11.644C15.252 36.653 19.065 37.186 22.427 40.425C24.846 42.762 26.363 45.96 26.363 50.224C26.363 54.529 24.887 57.645 22.632 59.9C18.86 63.713 14.145 64 11.849 64H2.993V36.653ZM9.307 41.983V58.67H10.988C12.3 58.67 15.17 58.547 17.22 56.825C18.696 55.595 19.885 53.258 19.885 50.224C19.885 47.272 18.696 45.386 17.63 44.32C15.58 42.27 12.915 41.983 10.988 41.983H9.307ZM29.9534 45.714H35.8574V64H29.9534V45.714ZM29.4614 37.924C29.4614 35.997 30.9784 34.48 32.9054 34.48C34.8324 34.48 36.3494 35.997 36.3494 37.924C36.3494 39.851 34.8324 41.368 32.9054 41.368C30.9784 41.368 29.4614 39.851 29.4614 37.924ZM54.0764 47.764V45.714H59.9804V64H54.0764V61.786C52.4774 64.246 50.1814 64.615 48.6644 64.615C46.0404 64.615 43.8264 63.959 41.8174 61.827C39.8904 59.777 39.1524 57.399 39.1524 54.98C39.1524 51.905 40.3004 49.281 41.9814 47.6C43.5804 46.001 45.7944 45.099 48.3364 45.099C49.8944 45.099 52.3954 45.468 54.0764 47.764ZM49.8124 50.183C48.5414 50.183 47.3524 50.716 46.5734 51.495C45.9584 52.11 45.2204 53.176 45.2204 54.816C45.2204 56.456 45.9174 57.522 46.4504 58.096C47.2704 58.957 48.5414 59.531 49.9354 59.531C51.1244 59.531 52.2314 59.039 53.0104 58.26C53.7894 57.522 54.4454 56.374 54.4454 54.816C54.4454 53.504 53.9534 52.274 53.0924 51.454C52.1904 50.593 50.8784 50.183 49.8124 50.183ZM63.9023 34.111H69.8063V64H63.9023V34.111ZM94.3109 54.857C94.3109 57.194 93.4089 59.818 91.5639 61.663C89.9239 63.303 87.1359 64.615 83.5689 64.615C80.0019 64.615 77.2139 63.303 75.5739 61.663C73.7289 59.818 72.8269 57.194 72.8269 54.857C72.8269 52.52 73.7289 49.896 75.5739 48.051C77.2139 46.411 80.0019 45.099 83.5689 45.099C87.1359 45.099 89.9239 46.411 91.5639 48.051C93.4089 49.896 94.3109 52.52 94.3109 54.857ZM83.5689 50.101C82.2159 50.101 81.1089 50.552 80.2479 51.413C79.3869 52.274 78.8949 53.381 78.8949 54.857C78.8949 56.538 79.5509 57.604 80.2479 58.301C80.9859 59.039 82.0519 59.613 83.6099 59.613C84.9219 59.613 86.0289 59.162 86.8899 58.301C87.7509 57.44 88.2429 56.333 88.2429 54.857C88.2429 53.381 87.7509 52.274 86.8899 51.413C86.0289 50.552 84.9219 50.101 83.5689 50.101ZM111.072 47.846V45.714H116.976V62.893C116.976 65.476 116.853 68.387 114.721 70.683C112.466 73.102 109.022 73.389 107.013 73.389C104.594 73.389 101.683 73.02 99.3866 71.052C98.2386 70.068 97.0496 68.51 96.6396 66.214H103.077C103.323 67.157 103.897 67.69 104.389 68.018C105.086 68.469 106.07 68.633 106.931 68.633C108.612 68.633 109.473 68.018 109.883 67.649C111.031 66.542 111.072 64.615 111.072 63.836V61.745C110.375 62.893 108.981 64.492 105.619 64.492C102.79 64.492 100.617 63.59 98.9356 61.909C97.4596 60.392 96.2706 58.178 96.2706 55.021C96.2706 51.905 97.4186 49.322 98.9766 47.723C100.084 46.575 102.216 45.099 105.619 45.099C108.94 45.099 110.416 46.862 111.072 47.846ZM106.972 50.224C105.66 50.224 104.471 50.716 103.733 51.413C102.831 52.274 102.339 53.709 102.339 54.816C102.339 56.005 102.79 57.235 103.61 58.096C104.43 58.957 105.537 59.408 106.931 59.408C108.489 59.408 109.514 58.793 110.129 58.219C111.031 57.358 111.564 56.087 111.564 54.734C111.564 53.299 110.949 52.11 110.17 51.372C109.309 50.593 108.038 50.224 106.972 50.224ZM130.183 36.653H136.497V58.67H144.984V64H130.183V36.653ZM161.066 47.764V45.714H166.97V64H161.066V61.786C159.467 64.246 157.171 64.615 155.654 64.615C153.03 64.615 150.816 63.959 148.807 61.827C146.88 59.777 146.142 57.399 146.142 54.98C146.142 51.905 147.29 49.281 148.971 47.6C150.57 46.001 152.784 45.099 155.326 45.099C156.884 45.099 159.385 45.468 161.066 47.764ZM156.802 50.183C155.531 50.183 154.342 50.716 153.563 51.495C152.948 52.11 152.21 53.176 152.21 54.816C152.21 56.456 152.907 57.522 153.44 58.096C154.26 58.957 155.531 59.531 156.925 59.531C158.114 59.531 159.221 59.039 160 58.26C160.779 57.522 161.435 56.374 161.435 54.816C161.435 53.504 160.943 52.274 160.082 51.454C159.18 50.593 157.868 50.183 156.802 50.183ZM170.892 34.111H176.796V47.764C178.272 45.755 180.486 45.099 182.495 45.099C184.996 45.099 187.251 46.042 188.85 47.559C190.613 49.24 191.72 51.741 191.72 54.775C191.72 57.604 190.736 60.228 188.85 62.114C187.251 63.754 185.283 64.615 182.577 64.615C179.338 64.615 177.698 63.098 176.796 61.786V64H170.892V34.111ZM181.06 50.183C179.789 50.183 178.682 50.552 177.739 51.536C177.042 52.274 176.427 53.34 176.427 54.898C176.427 56.415 177.083 57.522 177.78 58.178C178.723 59.08 180.035 59.531 181.142 59.531C182.167 59.531 183.315 59.121 184.217 58.26C185.078 57.44 185.652 56.251 185.652 54.898C185.652 53.422 185.078 52.233 184.217 51.413C183.274 50.511 182.249 50.183 181.06 50.183Z" fill="#4F1658"/>
</svg>
