<svg width="387" height="199" viewBox="0 0 387 199" fill="none" xmlns="http://www.w3.org/2000/svg">
<path fill-rule="evenodd" clip-rule="evenodd" d="M215 0C238.196 0 257 18.8124 257 42.0182C257 65.2242 238.196 84.0364 215 84.0364C209.602 84.0364 204.719 86.9281 200.722 90.5577C193.633 96.9958 183.69 101 172.68 101C171.322 100.999 171.072 98.8227 172.268 98.1783C174.377 97.0422 176.349 95.5887 178.145 93.8666C182.209 89.9683 178.631 84.0364 173 84.0364C149.804 84.0362 131 65.2241 131 42.0182C131 18.8125 149.804 0.000234074 173 0H215ZM183.8 24.0108C182.12 24.0108 181.279 24.0115 180.638 24.3386C180.074 24.6263 179.615 25.0853 179.327 25.6498C179 26.2918 179.001 27.1327 179.001 28.8134V43.2189C179.001 44.8996 179 45.7405 179.327 46.3825C179.615 46.947 180.074 47.406 180.638 47.6937C181.279 48.0208 182.12 48.0215 183.8 48.0215H196.701C198.381 48.0215 199.22 48.0208 199.862 47.6937C200.426 47.406 200.886 46.9472 201.174 46.3825C201.501 45.7405 201.5 44.8995 201.5 43.2189V39.0345C201.5 37.3616 201.5 36.5247 201.176 35.885C200.888 35.3159 200.426 34.8533 199.857 34.5648C199.217 34.2407 198.381 34.2409 196.709 34.2409H196.28C195.011 34.2409 194.376 34.2409 193.869 34.0519C193.053 33.7477 192.41 33.1041 192.106 32.2882C191.917 31.7811 191.917 29.6447 191.917 28.3751C191.917 27.1058 191.917 26.4705 191.728 25.9635C191.424 25.1476 190.781 24.5039 189.965 24.1997C189.458 24.0108 188.823 24.0108 187.555 24.0108H183.8ZM215.301 24.0108C213.621 24.0108 212.78 24.0114 212.138 24.3386C211.574 24.6263 211.115 25.0852 210.828 25.6498C210.501 26.2918 210.5 27.1325 210.5 28.8134V43.2189C210.5 44.8998 210.501 45.7405 210.828 46.3825C211.115 46.9471 211.574 47.406 212.138 47.6937C212.78 48.0209 213.621 48.0215 215.301 48.0215H228.2C229.88 48.0215 230.721 48.0209 231.363 47.6937C231.927 47.406 232.386 46.9471 232.673 46.3825C233 45.7405 233.001 44.8997 233.001 43.2189V39.0345C233.001 37.3616 233 36.5247 232.676 35.885C232.387 35.3159 231.925 34.8533 231.356 34.5648C230.717 34.2409 229.881 34.2409 228.209 34.2409H227.78C226.511 34.2409 225.876 34.2408 225.37 34.0519C224.554 33.7477 223.909 33.1043 223.605 32.2882C223.416 31.7811 223.416 29.6447 223.416 28.3751C223.416 27.1057 223.416 26.4705 223.228 25.9635C222.923 25.1476 222.28 24.5038 221.465 24.1997C220.958 24.0108 220.323 24.0108 219.054 24.0108H215.301Z" fill="url(#paint0_linear_147_2250)"/>
<path d="M5.986 119.306H23.288C30.504 119.306 38.13 120.372 44.854 126.85C49.692 131.524 52.726 137.92 52.726 146.448C52.726 155.058 49.774 161.29 45.264 165.8C37.72 173.426 28.29 174 23.698 174H5.986V119.306ZM18.614 129.966V163.34H21.976C24.6 163.34 30.34 163.094 34.44 159.65C37.392 157.19 39.77 152.516 39.77 146.448C39.77 140.544 37.392 136.772 35.26 134.64C31.16 130.54 25.83 129.966 21.976 129.966H18.614ZM59.9068 137.428H71.7148V174H59.9068V137.428ZM58.9228 121.848C58.9228 117.994 61.9568 114.96 65.8108 114.96C69.6648 114.96 72.6988 117.994 72.6988 121.848C72.6988 125.702 69.6648 128.736 65.8108 128.736C61.9568 128.736 58.9228 125.702 58.9228 121.848ZM108.153 141.528V137.428H119.961V174H108.153V169.572C104.955 174.492 100.363 175.23 97.3289 175.23C92.0809 175.23 87.6529 173.918 83.6349 169.654C79.7809 165.554 78.3049 160.798 78.3049 155.96C78.3049 149.81 80.6009 144.562 83.9629 141.2C87.1609 138.002 91.5889 136.198 96.6729 136.198C99.7889 136.198 104.791 136.936 108.153 141.528ZM99.6249 146.366C97.0829 146.366 94.7049 147.432 93.1469 148.99C91.9169 150.22 90.4409 152.352 90.4409 155.632C90.4409 158.912 91.8349 161.044 92.9009 162.192C94.5409 163.914 97.0829 165.062 99.8709 165.062C102.249 165.062 104.463 164.078 106.021 162.52C107.579 161.044 108.891 158.748 108.891 155.632C108.891 153.008 107.907 150.548 106.185 148.908C104.381 147.186 101.757 146.366 99.6249 146.366ZM127.805 114.222H139.613V174H127.805V114.222ZM188.622 155.714C188.622 160.388 186.818 165.636 183.128 169.326C179.848 172.606 174.272 175.23 167.138 175.23C160.004 175.23 154.428 172.606 151.148 169.326C147.458 165.636 145.654 160.388 145.654 155.714C145.654 151.04 147.458 145.792 151.148 142.102C154.428 138.822 160.004 136.198 167.138 136.198C174.272 136.198 179.848 138.822 183.128 142.102C186.818 145.792 188.622 151.04 188.622 155.714ZM167.138 146.202C164.432 146.202 162.218 147.104 160.496 148.826C158.774 150.548 157.79 152.762 157.79 155.714C157.79 159.076 159.102 161.208 160.496 162.602C161.972 164.078 164.104 165.226 167.22 165.226C169.844 165.226 172.058 164.324 173.78 162.602C175.502 160.88 176.486 158.666 176.486 155.714C176.486 152.762 175.502 150.548 173.78 148.826C172.058 147.104 169.844 146.202 167.138 146.202ZM222.143 141.692V137.428H233.951V171.786C233.951 176.952 233.705 182.774 229.441 187.366C224.931 192.204 218.043 192.778 214.025 192.778C209.187 192.778 203.365 192.04 198.773 188.104C196.477 186.136 194.099 183.02 193.279 178.428H206.153C206.645 180.314 207.793 181.38 208.777 182.036C210.171 182.938 212.139 183.266 213.861 183.266C217.223 183.266 218.945 182.036 219.765 181.298C222.061 179.084 222.143 175.23 222.143 173.672V169.49C220.749 171.786 217.961 174.984 211.237 174.984C205.579 174.984 201.233 173.18 197.871 169.818C194.919 166.784 192.541 162.356 192.541 156.042C192.541 149.81 194.837 144.644 197.953 141.446C200.167 139.15 204.431 136.198 211.237 136.198C217.879 136.198 220.831 139.724 222.143 141.692ZM213.943 146.448C211.319 146.448 208.941 147.432 207.465 148.826C205.661 150.548 204.677 153.418 204.677 155.632C204.677 158.01 205.579 160.47 207.219 162.192C208.859 163.914 211.073 164.816 213.861 164.816C216.977 164.816 219.027 163.586 220.257 162.438C222.061 160.716 223.127 158.174 223.127 155.468C223.127 152.598 221.897 150.22 220.339 148.744C218.617 147.186 216.075 146.448 213.943 146.448ZM260.365 119.306H272.993V163.34H289.967V174H260.365V119.306ZM322.131 141.528V137.428H333.939V174H322.131V169.572C318.933 174.492 314.341 175.23 311.307 175.23C306.059 175.23 301.631 173.918 297.613 169.654C293.759 165.554 292.283 160.798 292.283 155.96C292.283 149.81 294.579 144.562 297.941 141.2C301.139 138.002 305.567 136.198 310.651 136.198C313.767 136.198 318.769 136.936 322.131 141.528ZM313.603 146.366C311.061 146.366 308.683 147.432 307.125 148.99C305.895 150.22 304.419 152.352 304.419 155.632C304.419 158.912 305.813 161.044 306.879 162.192C308.519 163.914 311.061 165.062 313.849 165.062C316.227 165.062 318.441 164.078 319.999 162.52C321.557 161.044 322.869 158.748 322.869 155.632C322.869 153.008 321.885 150.548 320.163 148.908C318.359 147.186 315.735 146.366 313.603 146.366ZM341.783 114.222H353.591V141.528C356.543 137.51 360.971 136.198 364.989 136.198C369.991 136.198 374.501 138.084 377.699 141.118C381.225 144.48 383.439 149.482 383.439 155.55C383.439 161.208 381.471 166.456 377.699 170.228C374.501 173.508 370.565 175.23 365.153 175.23C358.675 175.23 355.395 172.196 353.591 169.572V174H341.783V114.222ZM362.119 146.366C359.577 146.366 357.363 147.104 355.477 149.072C354.083 150.548 352.853 152.68 352.853 155.796C352.853 158.83 354.165 161.044 355.559 162.356C357.445 164.16 360.069 165.062 362.283 165.062C364.333 165.062 366.629 164.242 368.433 162.52C370.155 160.88 371.303 158.502 371.303 155.796C371.303 152.844 370.155 150.466 368.433 148.826C366.547 147.022 364.497 146.366 362.119 146.366Z" fill="#4F1658"/>
<defs>
<linearGradient id="paint0_linear_147_2250" x1="194" y1="0" x2="194" y2="101" gradientUnits="userSpaceOnUse">
<stop stop-color="#723088"/>
<stop offset="1" stop-color="#4C314F"/>
</linearGradient>
</defs>
</svg>
