<svg preserveAspectRatio="none" width="100%" height="100%" overflow="visible" style="display: block;" viewBox="0 0 126 101" fill="none" xmlns="http://www.w3.org/2000/svg">
<path id="Subtract" fill-rule="evenodd" clip-rule="evenodd" d="M84 0C107.196 0 126 18.8124 126 42.0182C126 65.2242 107.196 84.0364 84 84.0364C78.602 84.0364 73.7194 86.9281 69.7224 90.5577C62.6327 96.9958 52.6904 101 41.68 101C40.3223 100.999 40.0719 98.8227 41.2676 98.1783C43.377 97.0422 45.349 95.5887 47.1447 93.8666C51.2095 89.9683 47.6308 84.0364 42 84.0364C18.8042 84.0362 2.17026e-05 65.2241 0 42.0182C0.000298389 18.8125 18.8044 0.000234074 42 0H84ZM52.8 24.0108C51.1201 24.0108 50.2795 24.0115 49.6378 24.3386C49.0736 24.6263 48.6146 25.0853 48.3271 25.6498C48.0002 26.2918 48.0007 27.1327 48.0007 28.8134V43.2189C48.0007 44.8996 48.0002 45.7405 48.3271 46.3825C48.6146 46.947 49.0736 47.406 49.6378 47.6937C50.2795 48.0208 51.1201 48.0215 52.8 48.0215H65.701C67.3806 48.0215 68.2203 48.0208 68.862 47.6937C69.4264 47.406 69.8863 46.9472 70.1739 46.3825C70.5007 45.7405 70.5003 44.8995 70.5003 43.2189V39.0345C70.5003 37.3616 70.5005 36.5247 70.1765 35.885C69.8881 35.3159 69.4258 34.8533 68.8568 34.5648C68.2175 34.2407 67.381 34.2409 65.7087 34.2409H65.2795C64.0106 34.2409 63.3757 34.2409 62.8689 34.0519C62.0534 33.7477 61.4101 33.1041 61.106 32.2882C60.9171 31.7811 60.9171 29.6447 60.9171 28.3751C60.9171 27.1058 60.9171 26.4705 60.7282 25.9635C60.4241 25.1476 59.7807 24.5039 58.9652 24.1997C58.4585 24.0108 57.8235 24.0108 56.5547 24.0108H52.8ZM84.3007 24.0108C82.6205 24.0108 81.7801 24.0114 81.1384 24.3386C80.574 24.6263 80.1153 25.0852 79.8278 25.6498C79.5008 26.2918 79.5001 27.1325 79.5001 28.8134V43.2189C79.5001 44.8998 79.5008 45.7405 79.8278 46.3825C80.1153 46.9471 80.574 47.406 81.1384 47.6937C81.7801 48.0209 82.6205 48.0215 84.3007 48.0215H97.2003C98.8805 48.0215 99.7209 48.0209 100.363 47.6937C100.927 47.406 101.386 46.9471 101.673 46.3825C102 45.7405 102.001 44.8997 102.001 43.2189V39.0345C102.001 37.3616 102 36.5247 101.676 35.885C101.387 35.3159 100.925 34.8533 100.356 34.5648C99.7169 34.2409 98.8809 34.2409 97.2093 34.2409H96.7801C95.5112 34.2409 94.8764 34.2408 94.3696 34.0519C93.5538 33.7477 92.9094 33.1043 92.6053 32.2882C92.4164 31.7811 92.4164 29.6447 92.4164 28.3751C92.4164 27.1057 92.4164 26.4705 92.2276 25.9635C91.9234 25.1476 91.2802 24.5038 90.4646 24.1997C89.9578 24.0108 89.3229 24.0108 88.054 24.0108H84.3007Z" fill="url(#paint0_linear_0_4)"/>
<defs>
<linearGradient id="paint0_linear_0_4" x1="63" y1="0" x2="63" y2="101" gradientUnits="userSpaceOnUse">
<stop stop-color="#723088"/>
<stop offset="1" stop-color="#4C314F"/>
</linearGradient>
</defs>
</svg>
